<svg width="80" height="80" viewBox="0 0 80 80" fill="none" xmlns="http://www.w3.org/2000/svg">
<path d="M70.0001 70H43.3334V20C43.3334 17.3478 44.387 14.8043 46.2623 12.9289C48.1377 11.0536 50.6813 10 53.3334 10H70.0001C70.8841 10 71.732 10.3512 72.3571 10.9763C72.9822 11.6014 73.3334 12.4493 73.3334 13.3333V66.6667C73.3334 67.5507 72.9822 68.3986 72.3571 69.0237C71.732 69.6488 70.8841 70 70.0001 70ZM36.6667 70H10.0001C9.11603 70 8.26818 69.6488 7.64306 69.0237C7.01794 68.3986 6.66675 67.5507 6.66675 66.6667V13.3333C6.66675 12.4493 7.01794 11.6014 7.64306 10.9763C8.26818 10.3512 9.11603 10 10.0001 10H26.6667C29.3189 10 31.8625 11.0536 33.7378 12.9289C35.6132 14.8043 36.6667 17.3478 36.6667 20V70ZM36.6667 70H43.3334V76.6666H36.6667V70Z" fill="#10b981"/>
</svg>
